<svg width="256" height="256" viewBox="0 0 256 256" fill="none" xmlns="http://www.w3.org/2000/svg">
<g clip-path="url(#clip0_8_20)">
<mask id="mask0_8_20" style="mask-type:luminance" maskUnits="userSpaceOnUse" x="0" y="0" width="256" height="256">
<path d="M256 0H0V256H256V0Z" fill="white"/>
</mask>
<g mask="url(#mask0_8_20)">
<path d="M192 0H64C28.6538 0 0 28.6538 0 64V192C0 227.346 28.6538 256 64 256H192C227.346 256 256 227.346 256 192V64C256 28.6538 227.346 0 192 0Z" fill="#10B981"/>
<path d="M151.41 195.5C161.84 195.5 193 191 214.5 185C226 181.791 262 169.73 255 161C244.5 147.904 217 177.351 137.5 175.5C133.198 175.4 120.5 173.5 117 171.726C113.5 169.951 109.164 167.126 106.938 163.552C104.711 159.978 103.07 155.612 102.016 150.456C100.961 145.3 100.434 139.47 100.434 132.966V123.034C100.434 116.237 101.02 110.261 102.191 105.104C103.363 99.8896 105.121 95.5537 107.465 92.0967C109.809 88.5811 112.738 85.9443 116.254 84.1865C119.828 82.4287 123.959 81.5498 128.646 81.5498C134.682 81.5498 139.516 82.5459 143.148 84.5381C146.84 86.4717 149.594 89.3135 151.41 93.0635C151.881 94.0052 152.308 94.9987 152.69 96.044C154.826 101.885 159.699 106.774 165.918 106.774C172.986 106.774 178.672 100.605 176.478 93.8867C175.302 90.2843 173.772 86.9044 171.889 83.7471C167.904 77.0674 162.309 71.8232 155.102 68.0146C147.895 64.1475 139.076 62.2139 128.646 62.2139C120.619 62.2139 113.354 63.6494 106.85 66.5205C100.404 69.3916 94.8672 73.4932 90.2383 78.8252C85.668 84.0986 82.1523 90.4854 79.6914 97.9854C77.2305 105.485 76 113.894 76 123.21V132.966C76 142.282 77.2012 150.69 79.6035 158.19C82.0059 165.632 85.4629 172.019 89.9746 177.351C94.5449 182.624 100.023 186.696 106.41 189.567C120.5 195.901 143.383 195.5 151.41 195.5Z" fill="white"/>
</g>
</g>
<defs>
<clipPath id="clip0_8_20">
<rect width="256" height="256" fill="white"/>
</clipPath>
</defs>
</svg>
